<svg width="28" height="26" viewBox="0 0 28 26" fill="none" xmlns="http://www.w3.org/2000/svg">
<path d="M7.99156 25.6563C6.4155 25.6563 4.87482 25.1889 3.56437 24.3133C2.25392 23.4377 1.23255 22.1931 0.629408 20.737C0.0262702 19.2809 -0.131542 17.6787 0.175927 16.1329C0.483396 14.5871 1.24234 13.1672 2.35678 12.0528L13.8763 0.533249L15.2023 1.85882L3.68281 13.3783C2.53998 14.5212 1.89794 16.0712 1.89793 17.6873C1.89792 19.3035 2.53994 20.8535 3.68275 21.9964C4.82557 23.1392 6.37556 23.7812 7.99176 23.7813C9.60795 23.7813 11.158 23.1392 12.3008 21.9964L24.4831 9.8138C25.2707 9.02188 25.7122 7.94996 25.7106 6.83306C25.7091 5.71617 25.2647 4.64546 24.475 3.85571C23.6852 3.06595 22.6145 2.6216 21.4976 2.6201C20.3807 2.61859 19.3088 3.06004 18.5169 3.84766L6.33424 16.0302C6.11504 16.2475 5.94091 16.506 5.82186 16.7907C5.70281 17.0755 5.64118 17.381 5.6405 17.6896C5.63983 17.9983 5.70012 18.304 5.81792 18.5893C5.93573 18.8746 6.10872 19.1338 6.32696 19.352C6.54521 19.5703 6.80442 19.7433 7.0897 19.8611C7.37499 19.9789 7.68073 20.0392 7.98938 20.0385C8.29803 20.0378 8.6035 19.9762 8.88827 19.8571C9.17303 19.7381 9.43148 19.564 9.64877 19.3448L20.1742 8.81946L21.5 10.1453L10.9746 20.6706C10.5835 21.065 10.1183 21.3783 9.60574 21.5925C9.0932 21.8066 8.54342 21.9175 7.98793 21.9186C7.43244 21.9198 6.8822 21.8112 6.36877 21.5992C5.85535 21.3871 5.38885 21.0758 4.99606 20.683C4.60327 20.2902 4.29192 19.8237 4.07987 19.3103C3.86783 18.7969 3.75927 18.2466 3.76042 17.6912C3.76157 17.1357 3.8724 16.5859 4.08657 16.0733C4.30074 15.5608 4.61402 15.0956 5.00844 14.7044L17.1911 2.5218C17.7563 1.95306 18.4282 1.50145 19.1683 1.19288C19.9084 0.884297 20.7021 0.724813 21.5039 0.723564C22.3057 0.722315 23.0999 0.879326 23.841 1.1856C24.582 1.49187 25.2553 1.94138 25.8223 2.50836C26.3893 3.07534 26.8388 3.74865 27.1451 4.48969C27.4514 5.23072 27.6084 6.02492 27.6071 6.82676C27.6059 7.62859 27.4464 8.4223 27.1378 9.16238C26.8293 9.90247 26.3777 10.5744 25.8089 11.1396L13.6263 23.3222C12.8881 24.0645 12.0099 24.6531 11.0427 25.0537C10.0755 25.4543 9.03846 25.6591 7.99156 25.6563Z" fill="#545454"/>
</svg>
