<svg width="28" height="23" viewBox="0 0 28 23" fill="none" xmlns="http://www.w3.org/2000/svg">
<path d="M13.5023 9C14.6957 9 15.8403 8.52589 16.6843 7.68198C17.5282 6.83807 18.0023 5.69347 18.0023 4.5C18.0023 3.30653 17.5282 2.16193 16.6843 1.31802C15.8403 0.474106 14.6957 0 13.5023 0C12.3088 0 11.1642 0.474106 10.3203 1.31802C9.47638 2.16193 9.00227 3.30653 9.00227 4.5C9.00227 5.69347 9.47638 6.83807 10.3203 7.68198C11.1642 8.52589 12.3088 9 13.5023 9ZM7.50227 7.5C7.50227 8.29565 7.1862 9.05871 6.62359 9.62132C6.06099 10.1839 5.29792 10.5 4.50227 10.5C3.70662 10.5 2.94356 10.1839 2.38095 9.62132C1.81834 9.05871 1.50227 8.29565 1.50227 7.5C1.50227 6.70435 1.81834 5.94129 2.38095 5.37868C2.94356 4.81607 3.70662 4.5 4.50227 4.5C5.29792 4.5 6.06099 4.81607 6.62359 5.37868C7.1862 5.94129 7.50227 6.70435 7.50227 7.5ZM0.737274 18.489C0.481203 18.3435 0.289441 18.1067 0.200274 17.826C-0.064018 16.97 -0.0667895 16.0546 0.192314 15.197C0.451417 14.3394 0.960602 13.5787 1.65466 13.0122C2.34872 12.4457 3.19607 12.0993 4.08819 12.0173C4.98031 11.9354 5.8766 12.1215 6.66227 12.552C5.04772 14.1386 4.03717 16.2388 3.80477 18.4905C3.77027 18.8235 3.78377 19.1535 3.84227 19.4715C2.74751 19.3768 1.68722 19.0413 0.737274 18.489ZM23.1623 19.47C24.2569 19.3758 25.3172 19.0408 26.2673 18.489C26.5228 18.3432 26.714 18.1065 26.8028 17.826C27.0675 16.9699 27.0706 16.0543 26.8117 15.1964C26.5527 14.3385 26.0436 13.5775 25.3494 13.0108C24.6553 12.4441 23.8077 12.0975 22.9154 12.0155C22.0231 11.9335 21.1266 12.1198 20.3408 12.5505C21.9567 14.1371 22.9684 16.2379 23.2013 18.4905C23.2347 18.8177 23.2216 19.148 23.1623 19.4715V19.47ZM25.5023 7.5C25.5023 8.29565 25.1862 9.05871 24.6236 9.62132C24.061 10.1839 23.2979 10.5 22.5023 10.5C21.7066 10.5 20.9436 10.1839 20.381 9.62132C19.8183 9.05871 19.5023 8.29565 19.5023 7.5C19.5023 6.70435 19.8183 5.94129 20.381 5.37868C20.9436 4.81607 21.7066 4.5 22.5023 4.5C23.2979 4.5 24.061 4.81607 24.6236 5.37868C25.1862 5.94129 25.5023 6.70435 25.5023 7.5ZM6.45827 19.785C6.31034 19.6525 6.19565 19.4871 6.12347 19.3021C6.05129 19.1171 6.02365 18.9177 6.04277 18.72C6.23357 16.8742 7.10184 15.1647 8.47976 13.9219C9.85768 12.679 11.6474 11.9911 13.503 11.9911C15.3586 11.9911 17.1484 12.679 18.5263 13.9219C19.9042 15.1647 20.7725 16.8742 20.9633 18.72C20.9825 18.9177 20.9549 19.1171 20.8827 19.3021C20.8106 19.4872 20.6958 19.6526 20.5478 19.785C18.6191 21.5354 16.1068 22.5035 13.5023 22.5C10.8982 22.5033 8.3865 21.5352 6.45827 19.785Z" fill="#545454"/>
</svg>
