<svg width="28" height="28" viewBox="0 0 28 28" fill="none" xmlns="http://www.w3.org/2000/svg">
<path d="M6.50656 22.3719C6.52282 21.1409 7.02307 19.9658 7.89908 19.1009C8.77509 18.2359 9.95642 17.7506 11.1875 17.75H16.8125C18.0436 17.7506 19.2249 18.2359 20.1009 19.1009C20.9769 19.9658 21.4772 21.1409 21.4934 22.3719C19.4374 24.2247 16.7677 25.2501 14 25.2501C11.2323 25.2501 8.56265 24.2247 6.50656 22.3719ZM18.2187 10.7188C18.2187 11.5531 17.9713 12.3688 17.5078 13.0626C17.0442 13.7563 16.3853 14.2971 15.6144 14.6164C14.8436 14.9357 13.9953 15.0192 13.177 14.8564C12.3586 14.6937 11.6069 14.2919 11.0169 13.7019C10.4269 13.1119 10.0251 12.3601 9.86231 11.5418C9.69953 10.7234 9.78307 9.87518 10.1024 9.1043C10.4217 8.33343 10.9624 7.67455 11.6562 7.21099C12.35 6.74743 13.1656 6.5 14 6.5C15.1189 6.5 16.1919 6.94447 16.9831 7.73564C17.7743 8.52681 18.2187 9.59987 18.2187 10.7188Z" fill="white"/>
<path d="M24.0772 22.3718C25.4236 20.7519 26.36 18.8315 26.8072 16.7732C27.2544 14.7149 27.1993 12.5791 26.6466 10.5466C26.0938 8.51402 25.0596 6.64451 23.6315 5.09618C22.2035 3.54785 20.4235 2.36625 18.4421 1.65134C16.4608 0.936432 14.3364 0.709243 12.2487 0.988993C10.161 1.26874 8.17139 2.0472 6.44817 3.25852C4.72495 4.46983 3.31882 6.07837 2.34874 7.94805C1.37865 9.81773 0.873152 11.8936 0.874997 13.9999C0.875705 17.062 1.95476 20.026 3.92281 22.3718L3.90406 22.3877C3.96968 22.4665 4.04469 22.534 4.11219 22.6118C4.19656 22.7084 4.2875 22.7993 4.37468 22.893C4.63718 23.178 4.90718 23.4518 5.19031 23.7087C5.27656 23.7874 5.36562 23.8605 5.45281 23.9355C5.75281 24.1943 6.06125 24.4399 6.38093 24.6687C6.42218 24.6968 6.45969 24.7334 6.50094 24.7624V24.7512C8.69666 26.2963 11.316 27.1256 14.0009 27.1256C16.6858 27.1256 19.3052 26.2963 21.5009 24.7512V24.7624C21.5422 24.7334 21.5787 24.6968 21.6209 24.6687C21.9397 24.439 22.2491 24.1943 22.5491 23.9355C22.6362 23.8605 22.7253 23.7865 22.8116 23.7087C23.0947 23.4509 23.3647 23.178 23.6272 22.893C23.7144 22.7993 23.8044 22.7084 23.8897 22.6118C23.9562 22.534 24.0322 22.4665 24.0978 22.3868L24.0772 22.3718ZM14 6.49992C14.8344 6.49992 15.65 6.74734 16.3438 7.21091C17.0376 7.67447 17.5783 8.33335 17.8976 9.10422C18.2169 9.8751 18.3005 10.7233 18.1377 11.5417C17.9749 12.3601 17.5731 13.1118 16.9831 13.7018C16.3931 14.2918 15.6414 14.6936 14.823 14.8564C14.0047 15.0191 13.1564 14.9356 12.3856 14.6163C11.6147 14.297 10.9558 13.7562 10.4922 13.0625C10.0287 12.3687 9.78125 11.5531 9.78125 10.7187C9.78125 9.59979 10.2257 8.52673 11.0169 7.73556C11.8081 6.94439 12.8811 6.49992 14 6.49992ZM6.50656 22.3718C6.52282 21.1408 7.02307 19.9658 7.89908 19.1008C8.77509 18.2358 9.95642 17.7505 11.1875 17.7499H16.8125C18.0436 17.7505 19.2249 18.2358 20.1009 19.1008C20.9769 19.9658 21.4772 21.1408 21.4934 22.3718C19.4373 24.2246 16.7677 25.25 14 25.25C11.2323 25.25 8.56265 24.2246 6.50656 22.3718Z" fill="#C8CCD3"/>
</svg>
