<svg width="30" height="30" viewBox="0 0 30 30" fill="none" xmlns="http://www.w3.org/2000/svg">
<path d="M15 3.75C21.2133 3.75 26.25 8.7868 26.25 15C26.25 21.2133 21.2133 26.25 15 26.25C8.7868 26.25 3.75 21.2133 3.75 15C3.75 8.7868 8.7868 3.75 15 3.75Z" stroke="#545454" stroke-width="2.5" stroke-linecap="round"/>
<mask id="mask0_60_1066" style="mask-type:luminance" maskUnits="userSpaceOnUse" x="7" y="15" width="16" height="8">
<path d="M10 17.5C10.625 19.375 12.2386 21.25 15 21.25C17.7614 21.25 19.375 19.375 20 17.5M10 17.5C11.25 18.125 12.5 18.75 15 18.75C17.5 18.75 18.75 18.125 20 17.5" stroke="white" stroke-width="2.5" stroke-linecap="round"/>
</mask>
<g mask="url(#mask0_60_1066)">
<path d="M22.5 15H7.5V23.75H22.5V15Z" fill="#545454"/>
</g>
<path d="M11.25 13.75C11.9404 13.75 12.5 12.9105 12.5 11.875C12.5 10.8395 11.9404 10 11.25 10C10.5596 10 10 10.8395 10 11.875C10 12.9105 10.5596 13.75 11.25 13.75Z" fill="#545454"/>
<path d="M18.75 13.75C19.4404 13.75 20 12.9105 20 11.875C20 10.8395 19.4404 10 18.75 10C18.0596 10 17.5 10.8395 17.5 11.875C17.5 12.9105 18.0596 13.75 18.75 13.75Z" fill="#545454"/>
</svg>
