<svg width="22" height="24" viewBox="0 0 22 24" fill="none" xmlns="http://www.w3.org/2000/svg">
<path fill-rule="evenodd" clip-rule="evenodd" d="M3.5 10.5V7.5C3.5 5.51088 4.29018 3.60322 5.6967 2.1967C7.10322 0.790176 9.01088 0 11 0C12.9891 0 14.8968 0.790176 16.3033 2.1967C17.7098 3.60322 18.5 5.51088 18.5 7.5V10.5C19.2956 10.5 20.0587 10.8161 20.6213 11.3787C21.1839 11.9413 21.5 12.7044 21.5 13.5V21C21.5 21.7956 21.1839 22.5587 20.6213 23.1213C20.0587 23.6839 19.2956 24 18.5 24H3.5C2.70435 24 1.94129 23.6839 1.37868 23.1213C0.81607 22.5587 0.5 21.7956 0.5 21V13.5C0.5 12.7044 0.81607 11.9413 1.37868 11.3787C1.94129 10.8161 2.70435 10.5 3.5 10.5ZM15.5 7.5V10.5H6.5V7.5C6.5 6.30653 6.97411 5.16193 7.81802 4.31802C8.66193 3.47411 9.80653 3 11 3C12.1935 3 13.3381 3.47411 14.182 4.31802C15.0259 5.16193 15.5 6.30653 15.5 7.5Z" fill="#545454"/>
</svg>
